<?xml version="1.0" encoding="utf-8"?>
<!-- Generator: Adobe Illustrator 26.2.1, SVG Export Plug-In . SVG Version: 6.00 Build 0)  -->
<svg version="1.1" id="Layer_1" xmlns="http://www.w3.org/2000/svg" xmlns:xlink="http://www.w3.org/1999/xlink" x="0px" y="0px"
	 viewBox="0 0 768.4 759" style="enable-background:new 0 0 768.4 759;" xml:space="preserve">
<style type="text/css">
	.st0{fill:none;}
	.st1{fill-rule:evenodd;clip-rule:evenodd;fill:#FFFFFF;}
	.st2{fill-rule:evenodd;clip-rule:evenodd;fill:#FFFFFF;stroke:url(#Unnamed_Pattern);stroke-miterlimit:10;}
</style>
<pattern  y="759" width="761" height="758.8" patternUnits="userSpaceOnUse" id="Unnamed_Pattern" viewBox="0 -758.8 761 758.8" style="overflow:visible;">
	<g>
		<rect y="-758.8" class="st0" width="761" height="758.8"/>
		<path class="st1" d="M444.7-382.9c61.8-3.5,99.2-36.3,96.5-85.2c-2.7-49.8-52.5-80.5-102.3-77.6C357.7-541,298-467.4,291.3-383.3
			c11.1-2.6,22.3-4.3,33.6-4.9C370.5-390.9,399.1-380.3,444.7-382.9L444.7-382.9z M463.6-362.8c-10.6,2.5-21.4,4-32.2,4.6
			c-43.6,2.5-71-7.5-114.7-5c-59.2,3.4-95,34-92.5,79.8c2.6,46.6,50.3,75.3,98,72.6C400-215.2,457.2-284.1,463.6-362.8z
			 M380.5-758.8C590.6-758.8,761-589,761-379.4S590.6,0,380.5,0S0-169.9,0-379.4S170.4-758.8,380.5-758.8"/>
	</g>
</pattern>
<path class="st2" d="M448.4,376c-45.6,2.6-74.2-8-119.8-5.3c-11.3,0.6-22.5,2.3-33.6,4.9c6.7-84.1,66.4-157.7,147.6-162.4
	c49.8-2.9,99.6,27.8,102.3,77.6C547.6,339.7,510.2,372.5,448.4,376L448.4,376z M325.9,548.1c-47.7,2.7-95.4-26-98-72.6
	c-2.5-45.8,33.3-76.4,92.5-79.8c43.7-2.5,71.1,7.5,114.7,5c10.8-0.6,21.6-2.1,32.2-4.6C460.9,474.8,403.7,543.7,325.9,548.1z
	 M384.2,0.1C174.1,0.1,3.7,170,3.7,379.5s170.4,379.4,380.5,379.4s380.5-169.8,380.5-379.4S594.3,0.1,384.2,0.1"/>
</svg>
